<?xml version="1.0" encoding="iso-8859-1"?>
<!-- Generator: Adobe Illustrator 19.0.0, SVG Export Plug-In . SVG Version: 6.00 Build 0)  -->
<svg version="1.1" id="Capa_1" xmlns="http://www.w3.org/2000/svg" xmlns:xlink="http://www.w3.org/1999/xlink" x="0px" y="0px"
	 viewBox="0 0 395.947 395.947" style="enable-background:new 0 0 395.947 395.947;" xml:space="preserve" width="85" height="85">
<polyline style="fill:#FFFFFF;" points="307.203,365.226 389.12,365.226 389.12,385.706 6.827,385.706 6.827,365.226 
	180.905,365.226 "/>
<path style="fill:#602F75;" d="M389.12,392.533H6.827c-3.773,0-6.827-3.057-6.827-6.827v-20.48c0-3.77,3.053-6.827,6.827-6.827
	h174.08c3.773,0,6.827,3.057,6.827,6.827c0,3.77-3.053,6.827-6.827,6.827H13.653v6.827h368.64v-6.827H307.2
	c-3.773,0-6.827-3.057-6.827-6.827c0-3.77,3.053-6.827,6.827-6.827h81.92c3.773,0,6.827,3.057,6.827,6.827v20.48
	C395.947,389.476,392.893,392.533,389.12,392.533z"/>
<path style="fill:#602F75;" d="M284.834,372.053h-79.3c-3.773,0-6.827-3.057-6.827-6.827c0-3.77,3.053-6.827,6.827-6.827h79.3
	c3.773,0,6.827,3.057,6.827,6.827C291.661,368.996,288.606,372.053,284.834,372.053z"/>
<g>
	<path style="fill:#EA3457;" d="M296.284,331.092h21.832c12.822,0,23.217-10.395,23.217-23.217V94.898
		c0-12.822-10.395-23.217-23.217-23.217h-21.832c-12.822,0-23.217,10.395-23.217,23.218v212.978
		C273.067,320.699,283.462,331.092,296.284,331.092z"/>
	<path style="fill:#EA3457;" d="M318.114,337.919h-21.827c-16.567,0-30.046-13.476-30.046-30.044V94.897
		c0-16.567,13.479-30.044,30.046-30.044h21.827c16.567,0,30.046,13.476,30.046,30.044v212.98
		C348.16,324.443,334.681,337.919,318.114,337.919z M296.286,78.506c-9.04,0-16.393,7.354-16.393,16.391v212.98
		c0,9.037,7.354,16.391,16.393,16.391h21.827c9.04,0,16.393-7.354,16.393-16.391V94.897c0-9.037-7.354-16.391-16.393-16.391
		L296.286,78.506L296.286,78.506z"/>
</g>
<path style="fill:#00E7FF;" d="M184.486,331.092h26.976c11.402,0,20.646-9.243,20.646-20.646V153.765
	c0-11.402-9.243-20.646-20.646-20.646h-26.976c-11.402,0-20.646,9.243-20.646,20.646v156.682
	C163.84,321.849,173.083,331.092,184.486,331.092z"/>
<path style="fill:#602F75;" d="M211.459,337.919h-26.974c-15.147,0-27.474-12.324-27.474-27.474V153.765
	c0-15.15,12.327-27.474,27.474-27.474h26.974c15.147,0,27.474,12.324,27.474,27.474v156.681
	C238.933,325.597,226.606,337.919,211.459,337.919z M184.487,139.946c-7.62,0-13.821,6.2-13.821,13.821v156.681
	c0,7.62,6.2,13.821,13.821,13.821h26.974c7.62,0,13.821-6.2,13.821-13.821V153.766c0-7.62-6.2-13.821-13.821-13.821L184.487,139.946
	L184.487,139.946z"/>
<path style="fill:#FFE600;" d="M71.958,331.092h33.575c9.58,0,17.345-7.765,17.345-17.345v-95.015
	c0-9.58-7.765-17.345-17.345-17.345H71.958c-9.58,0-17.345,7.765-17.345,17.345v95.015
	C54.613,323.327,62.379,331.092,71.958,331.092z"/>
<g>
	<path style="fill:#602F75;" d="M105.533,337.919H71.96c-13.327,0-24.173-10.844-24.173-24.173v-95.014
		c0-13.331,10.846-24.173,24.173-24.173h33.574c13.327,0,24.173,10.844,24.173,24.173v95.014
		C129.707,327.077,118.861,337.919,105.533,337.919z M71.96,208.213c-5.799,0-10.52,4.721-10.52,10.52v95.014
		c0,5.799,4.721,10.52,10.52,10.52h33.574c5.799,0,10.52-4.721,10.52-10.52v-95.014c0-5.799-4.721-10.52-10.52-10.52H71.96z"/>
	<path style="fill:#602F75;" d="M20.473,153.599c-3.379,0-6.313-2.504-6.76-5.939c-0.486-3.739,2.147-7.166,5.879-7.656
		c1.101-0.143,110.961-15.287,184.32-87.433c2.679-2.647,7.013-2.613,9.653,0.08c2.647,2.686,2.606,7.009-0.08,9.653
		c-76.699,75.433-187.447,90.631-192.126,91.24C21.067,153.584,20.767,153.599,20.473,153.599z"/>
</g>
<polygon style="fill:#FFFFFF;" points="218.453,85.333 252.587,10.239 177.493,44.373 "/>
<path style="fill:#602F75;" d="M218.453,92.159c-1.794,0-3.533-0.707-4.826-2l-40.96-40.96c-1.587-1.584-2.287-3.84-1.893-6.043
	c0.399-2.203,1.86-4.07,3.893-4.997L249.76,4.025c2.599-1.176,5.647-0.623,7.653,1.386c2.014,2.014,2.567,5.06,1.386,7.649
	l-34.133,75.093c-0.927,2.039-2.794,3.494-4.994,3.893C219.267,92.123,218.86,92.159,218.453,92.159z M189.286,46.513l27.027,27.027
	l22.526-49.553L189.286,46.513z"/>
<g>
</g>
<g>
</g>
<g>
</g>
<g>
</g>
<g>
</g>
<g>
</g>
<g>
</g>
<g>
</g>
<g>
</g>
<g>
</g>
<g>
</g>
<g>
</g>
<g>
</g>
<g>
</g>
<g>
</g>
</svg>
