<?xml version="1.0" encoding="iso-8859-1"?>
<!-- Generator: Adobe Illustrator 19.0.0, SVG Export Plug-In . SVG Version: 6.00 Build 0)  -->
<svg version="1.1" id="Capa_1" xmlns="http://www.w3.org/2000/svg" xmlns:xlink="http://www.w3.org/1999/xlink" x="0px" y="0px"
	 viewBox="0 0 430.08 430.08" style="enable-background:new 0 0 430.08 430.08;" xml:space="preserve" width="85" height="85">
<path style="fill:#FFE600;" d="M307.2,85.333c-52.784,0-95.573,42.79-95.573,95.573s42.79,95.573,95.573,95.573
	c40.986,0,75.947-25.8,89.527-62.044"/>
<path style="fill:#602F75;" d="M307.2,283.307c-56.467,0-102.4-45.933-102.4-102.4s45.933-102.4,102.4-102.4
	c3.773,0,6.827,3.053,6.827,6.827s-3.053,6.827-6.827,6.827c-48.934,0-88.747,39.813-88.747,88.747s39.813,88.747,88.747,88.747
	c36.813,0,70.221-23.153,83.133-57.614c1.326-3.533,5.28-5.313,8.786-4c3.533,1.326,5.32,5.26,4,8.786
	C388.221,256.594,349.674,283.307,307.2,283.307z"/>
<path style="fill:#EA3457;" d="M307.2,64.853v116.053h116.053C423.253,116.811,371.294,64.853,307.2,64.853z"/>
<g>
	<path style="fill:#602F75;" d="M423.253,187.733H307.2c-3.773,0-6.827-3.053-6.827-6.827V64.853c0-3.773,3.053-6.827,6.827-6.827
		c67.753,0,122.88,55.127,122.88,122.88C430.08,184.68,427.027,187.733,423.253,187.733z M314.027,174.08h102.187
		c-3.393-54.799-47.387-98.794-102.187-102.187V174.08z"/>
	<path style="fill:#602F75;" d="M34.14,344.747c-1.959,0-3.9-0.833-5.253-2.454c-2.413-2.9-2.021-7.207,0.874-9.62l81.92-68.267
		c2.533-2.106,6.214-2.106,8.747,0l76.213,63.514l91.313-130.447c2.161-3.092,6.414-3.84,9.506-1.679
		c3.092,2.161,3.84,6.42,1.679,9.506l-95.573,136.533c-1.094,1.567-2.801,2.599-4.693,2.854s-3.801-0.3-5.274-1.521l-77.546-64.625
		l-77.548,64.626C37.226,344.226,35.68,344.747,34.14,344.747z"/>
</g>
<g>
	<circle style="fill:#00E7FF;" cx="197.973" cy="331.093" r="27.307"/>
	<path style="fill:#00E7FF;" d="M197.973,365.227c-18.819,0-34.133-15.314-34.133-34.133s15.314-34.133,34.133-34.133
		s34.133,15.314,34.133,34.133S216.793,365.227,197.973,365.227z M197.973,310.613c-11.293,0-20.48,9.187-20.48,20.48
		c0,11.293,9.187,20.48,20.48,20.48c11.293,0,20.48-9.187,20.48-20.48C218.453,319.8,209.266,310.613,197.973,310.613z"/>
	<circle style="fill:#00E7FF;" cx="116.053" cy="269.653" r="27.307"/>
	<path style="fill:#00E7FF;" d="M116.053,303.787c-18.819,0-34.133-15.314-34.133-34.133s15.314-34.133,34.133-34.133
		s34.133,15.314,34.133,34.133S134.873,303.787,116.053,303.787z M116.053,249.173c-11.293,0-20.48,9.187-20.48,20.48
		c0,11.293,9.187,20.48,20.48,20.48s20.48-9.187,20.48-20.48C136.533,258.36,127.346,249.173,116.053,249.173z"/>
	<circle style="fill:#00E7FF;" cx="34.133" cy="337.92" r="27.307"/>
	<path style="fill:#00E7FF;" d="M34.133,372.053C15.314,372.053,0,356.739,0,337.92s15.314-34.133,34.133-34.133
		s34.133,15.314,34.133,34.133S52.953,372.053,34.133,372.053z M34.133,317.44c-11.293,0-20.48,9.187-20.48,20.48
		s9.187,20.48,20.48,20.48s20.48-9.187,20.48-20.48S45.426,317.44,34.133,317.44z"/>
</g>
<g>
</g>
<g>
</g>
<g>
</g>
<g>
</g>
<g>
</g>
<g>
</g>
<g>
</g>
<g>
</g>
<g>
</g>
<g>
</g>
<g>
</g>
<g>
</g>
<g>
</g>
<g>
</g>
<g>
</g>
</svg>
