<?xml version="1.0" encoding="iso-8859-1"?>
<!-- Generator: Adobe Illustrator 19.0.0, SVG Export Plug-In . SVG Version: 6.00 Build 0)  -->
<svg version="1.1" id="Capa_1" xmlns="http://www.w3.org/2000/svg" xmlns:xlink="http://www.w3.org/1999/xlink" x="0px" y="0px"
	 viewBox="0 0 423.253 423.253" style="enable-background:new 0 0 423.253 423.253;" xml:space="preserve" width="85" height="85">
<circle style="fill:#FFE600;" cx="211.627" cy="211.627" r="116.053"/>
<path style="fill:#602F75;" d="M211.627,334.507c-67.753,0-122.88-55.127-122.88-122.88s55.127-122.88,122.88-122.88
	s122.88,55.127,122.88,122.88S279.38,334.507,211.627,334.507z M211.627,102.4c-60.227,0-109.227,49-109.227,109.227
	s49,109.227,109.227,109.227s109.227-49,109.227-109.227S271.853,102.4,211.627,102.4z"/>
<path style="fill:#EA3457;" d="M273.067,266.24h-122.88v-15.606c0-10.728,10.767-19.427,24.049-19.427l37.391-5.927l37.391,5.927
	c13.281,0,24.049,8.697,24.049,19.427V266.24z"/>
<path style="fill:#602F75;" d="M273.067,273.067h-122.88c-3.773,0-6.827-3.053-6.827-6.827v-15.607
	c0-14.314,13.548-25.993,30.307-26.247l36.893-5.847c0.707-0.119,1.427-0.119,2.133,0l36.893,5.847
	c16.759,0.253,30.307,11.933,30.307,26.247v15.607C279.893,270.013,276.84,273.067,273.067,273.067z M157.013,259.413H266.24v-8.781
	c0-6.827-7.887-12.6-17.22-12.6c-0.36,0-0.713-0.027-1.067-0.087l-36.326-5.751l-36.326,5.753c-0.353,0.06-0.707,0.087-1.067,0.087
	c-9.334,0-17.22,5.774-17.22,12.6V259.413z"/>
<path style="fill:#FFFFFF;" d="M231.468,225.28h-40.672c-7.347,0-13.303-5.956-13.303-13.303v-39.649
	c0-15.998,12.969-28.967,28.967-28.967h9.342c15.998,0,28.967,12.969,28.967,28.967v39.649
	C244.772,219.324,238.816,225.28,231.468,225.28z"/>
<g>
	<path style="fill:#602F75;" d="M231.467,232.141H190.8c-11.121,0-20.166-9.047-20.166-20.166v-39.646
		c0-19.753,16.073-35.826,35.826-35.826h9.347c19.753,0,35.826,16.073,35.826,35.826v39.646
		C251.633,223.094,242.587,232.141,231.467,232.141z M206.461,150.221c-12.194,0-22.106,9.914-22.106,22.106v39.646
		c0,3.553,2.893,6.446,6.446,6.446h40.666c3.553,0,6.446-2.893,6.446-6.446v-39.646c0-12.194-9.914-22.106-22.106-22.106
		L206.461,150.221L206.461,150.221z"/>
	<path style="fill:#602F75;" d="M211.627,102.4c-3.773,0-6.827-3.053-6.827-6.827V47.787c0-3.773,3.053-6.827,6.827-6.827
		s6.827,3.053,6.827,6.827v47.787C218.453,99.347,215.4,102.4,211.627,102.4z"/>
</g>
<g>
	<circle style="fill:#00E7FF;" cx="211.627" cy="27.307" r="20.48"/>
	<path style="fill:#00E7FF;" d="M211.627,54.613c-15.06,0-27.307-12.247-27.307-27.307S196.567,0,211.627,0
		c15.06,0,27.307,12.247,27.307,27.307S226.686,54.613,211.627,54.613z M211.627,13.653c-7.526,0-13.653,6.127-13.653,13.653
		S204.1,40.96,211.627,40.96c7.526,0,13.653-6.127,13.653-13.653S219.153,13.653,211.627,13.653z"/>
</g>
<path style="fill:#602F75;" d="M211.627,382.293c-3.773,0-6.827-3.053-6.827-6.827V327.68c0-3.773,3.053-6.827,6.827-6.827
	s6.827,3.053,6.827,6.827v47.787C218.453,379.24,215.4,382.293,211.627,382.293z"/>
<g>
	<circle style="fill:#00E7FF;" cx="211.627" cy="395.947" r="20.48"/>
	<path style="fill:#00E7FF;" d="M211.627,423.253c-15.06,0-27.307-12.247-27.307-27.307s12.247-27.307,27.307-27.307
		c15.06,0,27.307,12.247,27.307,27.307S226.686,423.253,211.627,423.253z M211.627,382.293c-7.526,0-13.653,6.127-13.653,13.653
		c0,7.526,6.127,13.653,13.653,13.653c7.526,0,13.653-6.127,13.653-13.653C225.28,388.42,219.153,382.293,211.627,382.293z"/>
</g>
<path style="fill:#602F75;" d="M95.573,218.453H47.787c-3.773,0-6.827-3.053-6.827-6.827s3.053-6.827,6.827-6.827h47.787
	c3.773,0,6.827,3.053,6.827,6.827S99.347,218.453,95.573,218.453z"/>
<g>
	<circle style="fill:#00E7FF;" cx="27.307" cy="211.627" r="20.48"/>
	<path style="fill:#00E7FF;" d="M27.307,238.933C12.247,238.933,0,226.686,0,211.627c0-15.06,12.247-27.307,27.307-27.307
		s27.307,12.247,27.307,27.307C54.613,226.686,42.366,238.933,27.307,238.933z M27.307,197.973c-7.526,0-13.653,6.127-13.653,13.653
		c0,7.526,6.127,13.653,13.653,13.653s13.653-6.127,13.653-13.653C40.96,204.1,34.833,197.973,27.307,197.973z"/>
</g>
<path style="fill:#602F75;" d="M375.467,218.453H327.68c-3.773,0-6.827-3.053-6.827-6.827s3.053-6.827,6.827-6.827h47.787
	c3.773,0,6.827,3.053,6.827,6.827S379.24,218.453,375.467,218.453z"/>
<g>
	<circle style="fill:#00E7FF;" cx="395.947" cy="211.627" r="20.48"/>
	<path style="fill:#00E7FF;" d="M395.947,238.933c-15.06,0-27.307-12.247-27.307-27.307c0-15.06,12.247-27.307,27.307-27.307
		s27.307,12.247,27.307,27.307C423.253,226.686,411.006,238.933,395.947,238.933z M395.947,197.973
		c-7.526,0-13.653,6.127-13.653,13.653c0,7.526,6.127,13.653,13.653,13.653c7.526,0,13.653-6.127,13.653-13.653
		C409.6,204.1,403.473,197.973,395.947,197.973z"/>
</g>
<path style="fill:#602F75;" d="M129.567,136.393c-1.746,0-3.494-0.667-4.826-2l-33.794-33.794c-2.666-2.666-2.666-6.987,0-9.653
	s6.987-2.666,9.653,0l33.794,33.794c2.666,2.666,2.666,6.987,0,9.653C133.06,135.726,131.313,136.393,129.567,136.393z"/>
<g>
	<ellipse style="fill:#00E7FF;" cx="81.284" cy="81.289" rx="20.48" ry="20.48"/>
	<path style="fill:#00E7FF;" d="M81.294,108.6c-7.299,0-14.153-2.84-19.306-8.001c-5.159-5.159-8.001-12.013-8.001-19.306
		c0-7.299,2.84-14.153,8.001-19.306c10.3-10.313,28.286-10.327,38.613,0l0,0c5.159,5.154,8.001,12.006,8.001,19.306
		c0,7.293-2.84,14.147-8.001,19.306C95.44,105.759,88.586,108.6,81.294,108.6z M81.294,67.64c-3.647,0-7.074,1.42-9.653,4
		c-2.579,2.58-4,6.007-4,9.653c0,3.645,1.42,7.074,4,9.653c5.159,5.159,14.147,5.159,19.306,0c2.58-2.58,4-6.007,4-9.653
		c0-3.645-1.42-7.074-4-9.653l0,0C88.366,69.06,84.941,67.64,81.294,67.64z"/>
</g>
<path style="fill:#602F75;" d="M327.48,334.307c-1.746,0-3.494-0.667-4.826-2l-33.794-33.794c-2.666-2.666-2.666-6.987,0-9.653
	s6.987-2.666,9.653,0l33.794,33.794c2.666,2.666,2.666,6.987,0,9.653C330.974,333.64,329.226,334.307,327.48,334.307z"/>
<g>
	<ellipse style="fill:#00E7FF;" cx="341.969" cy="341.965" rx="20.48" ry="20.48"/>
	<path style="fill:#00E7FF;" d="M341.96,369.266c-7.293,0-14.147-2.84-19.306-8.001c-5.159-5.154-8.001-12.006-8.001-19.306
		c0-7.293,2.84-14.147,8.001-19.306c10.327-10.327,28.314-10.313,38.613,0c5.159,5.159,8.001,12.013,8.001,19.306
		c0,7.299-2.84,14.153-8.001,19.306C356.113,366.426,349.261,369.266,341.96,369.266z M341.96,328.306c-3.647,0-7.074,1.42-9.653,4
		c-2.579,2.58-4,6.007-4,9.653s1.42,7.074,4,9.653c5.159,5.159,14.147,5.159,19.306,0c2.58-2.58,4-6.007,4-9.653
		s-1.42-7.074-4-9.653l0,0C349.034,329.726,345.607,328.306,341.96,328.306z"/>
</g>
<path style="fill:#602F75;" d="M293.687,136.393c-1.746,0-3.494-0.667-4.826-2c-2.666-2.666-2.666-6.987,0-9.653l33.794-33.794
	c2.666-2.666,6.987-2.666,9.653,0s2.666,6.987,0,9.653l-33.794,33.794C297.18,135.726,295.433,136.393,293.687,136.393z"/>
<g>
	<ellipse style="fill:#00E7FF;" cx="341.958" cy="81.284" rx="20.48" ry="20.48"/>
	<path style="fill:#00E7FF;" d="M341.96,108.6c-7.293,0-14.147-2.84-19.306-8.001c-5.159-5.161-8.001-12.013-8.001-19.306
		c0-7.299,2.84-14.153,8.001-19.306c10.327-10.327,28.314-10.313,38.613,0c5.159,5.154,8.001,12.006,8.001,19.306
		c0,7.293-2.84,14.147-8.001,19.306l0,0C356.113,105.76,349.261,108.6,341.96,108.6z M341.96,67.64c-3.647,0-7.074,1.42-9.653,4
		c-2.579,2.58-4,6.007-4,9.653c0,3.645,1.42,7.074,4,9.653c5.159,5.159,14.147,5.159,19.306,0l0,0c2.58-2.58,4-6.007,4-9.653
		c0-3.645-1.42-7.074-4-9.653C349.032,69.062,345.607,67.64,341.96,67.64z"/>
</g>
<path style="fill:#602F75;" d="M95.773,334.307c-1.746,0-3.494-0.667-4.826-2c-2.666-2.666-2.666-6.987,0-9.653l33.794-33.794
	c2.666-2.666,6.987-2.666,9.653,0c2.666,2.666,2.666,6.987,0,9.653l-33.794,33.794C99.267,333.64,97.521,334.307,95.773,334.307z"/>
<g>
	<ellipse style="fill:#00E7FF;" cx="81.289" cy="341.969" rx="20.48" ry="20.48"/>
	<path style="fill:#00E7FF;" d="M81.294,369.266c-7.299,0-14.153-2.84-19.306-8.001c-5.159-5.154-8.001-12.006-8.001-19.306
		c0-7.293,2.84-14.147,8.001-19.306c10.3-10.313,28.286-10.327,38.613,0c5.159,5.159,8.001,12.013,8.001,19.306
		c0,7.299-2.84,14.153-8.001,19.306C95.44,366.426,88.586,369.266,81.294,369.266z M81.294,328.306c-3.647,0-7.074,1.42-9.653,4
		c-2.579,2.58-4,6.007-4,9.653s1.42,7.074,4,9.653c5.159,5.159,14.147,5.159,19.306,0l0,0c2.58-2.58,4-6.007,4-9.653
		s-1.42-7.074-4-9.653C88.366,329.728,84.941,328.306,81.294,328.306z"/>
</g>
<g>
</g>
<g>
</g>
<g>
</g>
<g>
</g>
<g>
</g>
<g>
</g>
<g>
</g>
<g>
</g>
<g>
</g>
<g>
</g>
<g>
</g>
<g>
</g>
<g>
</g>
<g>
</g>
<g>
</g>
</svg>
