<?xml version="1.0" encoding="iso-8859-1"?>
<!-- Generator: Adobe Illustrator 19.0.0, SVG Export Plug-In . SVG Version: 6.00 Build 0)  -->
<svg version="1.1" id="Capa_1" xmlns="http://www.w3.org/2000/svg" xmlns:xlink="http://www.w3.org/1999/xlink" x="0px" y="0px"
	 viewBox="0 0 423.255 423.255" style="enable-background:new 0 0 423.255 423.255;" xml:space="preserve" width="85" height="85">
<path style="fill:#EAEAEA;" d="M133.12,197.974l76.858,12.679c27.302,0,49.435,18.886,49.435,42.182v33.886H6.827v-33.886
	c0-23.296,22.132-42.182,49.435-42.182"/>
<path style="fill:#602F75;" d="M259.413,293.548H6.827c-3.773,0-6.827-3.053-6.827-6.827v-33.886c0-27.02,25.24-49.007,56.26-49.007
	c3.773,0,6.827,3.053,6.827,6.827s-3.053,6.827-6.827,6.827c-23.494,0-42.607,15.86-42.607,35.354v27.059h238.933v-27.059
	c0-19.494-19.113-35.354-42.607-35.354c-0.374,0-0.748-0.034-1.113-0.094l-76.86-12.681c-3.721-0.613-6.233-4.127-5.62-7.847
	c0.606-3.714,4.067-6.299,7.847-5.62l76.32,12.587c30.759,0.275,55.685,22.154,55.685,49.009v33.886
	C266.24,290.494,263.187,293.548,259.413,293.548z"/>
<path style="fill:#FFFFFF;" d="M163.84,197.974L163.84,197.974c-19.338,8.595-42.102,8.595-61.44,0l0,0v-47.787h61.44V197.974z"/>
<path style="fill:#602F75;" d="M133.12,211.201c-11.5,0-23.006-2.326-33.493-6.987c-2.466-1.099-4.053-3.54-4.053-6.24v-47.787
	c0-3.773,3.053-6.827,6.827-6.827h61.44c3.773,0,6.827,3.053,6.827,6.827v47.787c0,2.7-1.587,5.14-4.053,6.24
	C156.126,208.875,144.62,211.201,133.12,211.201z M163.84,197.974h0.067H163.84z M109.227,193.375
	c15.241,5.586,32.546,5.586,47.787,0v-36.361h-47.787V193.375z"/>
<path style="fill:#FFFFFF;" d="M169.757,163.841H96.483c-15.584,0-28.216-12.633-28.216-28.216v-60.53
	c0-33.932,27.508-61.44,61.44-61.44h6.827c33.932,0,61.44,27.508,61.44,61.44v60.53
	C197.973,151.208,185.341,163.841,169.757,163.841z"/>
<path style="fill:#602F75;" d="M169.76,170.668H96.48c-19.319,0-35.04-15.72-35.04-35.04V75.094
	c0-37.641,30.626-68.267,68.267-68.267h6.827c37.641,0,68.267,30.626,68.267,68.267v60.534
	C204.8,154.947,189.08,170.668,169.76,170.668z M129.707,20.481c-30.114,0-54.613,24.499-54.613,54.613v60.534
	c0,11.793,9.593,21.386,21.386,21.386h73.281c11.793,0,21.386-9.593,21.386-21.386V75.094c0-30.114-24.499-54.613-54.613-54.613
	H129.707z"/>
<path style="fill:#00E7FF;" d="M366.991,210.653c27.302,0,49.435,18.886,49.435,42.182v33.886H163.84v-33.886
	c0-23.296,22.132-42.182,49.435-42.182l76.858-12.679"/>
<path style="fill:#602F75;" d="M416.427,293.548H163.84c-3.773,0-6.827-3.053-6.827-6.827v-33.886
	c0-26.853,24.926-48.734,55.687-49.007l76.32-12.587c3.787-0.674,7.24,1.906,7.847,5.62c0.613,3.721-1.9,7.233-5.62,7.847
	l-76.86,12.681c-0.367,0.06-0.741,0.094-1.113,0.094c-23.494,0-42.607,15.86-42.607,35.354v27.057h238.933v-27.059
	c0-19.494-19.113-35.354-42.607-35.354c-3.773,0-6.827-3.053-6.827-6.827s3.053-6.827,6.827-6.827
	c31.02,0,56.26,21.987,56.26,49.007v33.886C423.253,290.494,420.2,293.548,416.427,293.548z"/>
<path style="fill:#FFFFFF;" d="M320.853,197.974L320.853,197.974c-19.338,8.595-42.102,8.595-61.44,0l0,0v-47.787h61.44V197.974z"/>
<path style="fill:#602F75;" d="M290.133,211.201c-11.5,0-23.006-2.326-33.493-6.987c-2.466-1.099-4.053-3.54-4.053-6.24v-47.787
	c0-3.773,3.053-6.827,6.827-6.827h61.44c3.773,0,6.827,3.053,6.827,6.827v47.787c0,2.7-1.587,5.14-4.053,6.24
	C313.139,208.875,301.633,211.201,290.133,211.201z M320.853,197.974h0.067H320.853z M266.24,193.375
	c15.241,5.586,32.546,5.586,47.787,0v-36.361H266.24V193.375z"/>
<path style="fill:#FFFFFF;" d="M326.77,163.841h-73.274c-15.584,0-28.216-12.633-28.216-28.216v-60.53
	c0-33.932,27.508-61.44,61.44-61.44h6.827c33.932,0,61.44,27.508,61.44,61.44v60.53C354.987,151.208,342.354,163.841,326.77,163.841
	z"/>
<path style="fill:#602F75;" d="M326.774,170.668h-73.281c-19.319,0-35.04-15.72-35.04-35.04V75.094
	c0-37.641,30.626-68.267,68.267-68.267h6.827c37.641,0,68.267,30.626,68.267,68.267v60.534
	C361.813,154.947,346.093,170.668,326.774,170.668z M286.72,20.481c-30.114,0-54.613,24.499-54.613,54.613v60.534
	c0,11.793,9.593,21.386,21.386,21.386h73.281c11.793,0,21.386-9.593,21.386-21.386V75.094c0-30.114-24.499-54.613-54.613-54.613
	H286.72z"/>
<path style="fill:#FFE600;" d="M341.333,409.601H88.747v-33.886c0-23.296,22.132-42.182,49.435-42.182l76.858-12.679l76.858,12.679
	c27.302,0,49.435,18.886,49.435,42.182V409.601z"/>
<path style="fill:#602F75;" d="M341.333,416.428H88.747c-3.773,0-6.827-3.053-6.827-6.827v-33.886
	c0-26.853,24.926-48.734,55.687-49.007l76.32-12.587c0.748-0.119,1.48-0.119,2.227,0l76.32,12.587
	c30.759,0.273,55.685,22.153,55.685,49.007v33.886C348.16,413.374,345.107,416.428,341.333,416.428z M95.573,402.774h238.933
	v-27.059c0-19.494-19.113-35.354-42.607-35.354c-0.374,0-0.748-0.034-1.113-0.094l-75.747-12.493l-75.747,12.493
	c-0.367,0.06-0.741,0.094-1.113,0.094c-23.494,0-42.607,15.86-42.607,35.354V402.774z"/>
<path style="fill:#FFFFFF;" d="M245.76,320.854L245.76,320.854c-19.338,8.595-42.102,8.595-61.44,0l0,0v-47.787h61.44V320.854z"/>
<path style="fill:#602F75;" d="M215.04,334.081c-11.5,0-23.006-2.326-33.493-6.987c-2.466-1.099-4.053-3.54-4.053-6.24v-47.787
	c0-3.773,3.053-6.827,6.827-6.827h61.44c3.773,0,6.827,3.053,6.827,6.827v47.787c0,2.7-1.587,5.14-4.053,6.24
	C238.046,331.755,226.54,334.081,215.04,334.081z M245.76,320.854h0.067H245.76z M191.147,316.255
	c15.241,5.586,32.546,5.586,47.787,0v-36.361h-47.787V316.255z"/>
<path style="fill:#FFFFFF;" d="M251.677,286.721h-73.274c-15.584,0-28.216-12.633-28.216-28.216v-60.53
	c0-33.932,27.508-61.44,61.44-61.44h6.827c33.932,0,61.44,27.508,61.44,61.44v60.53
	C279.893,274.088,267.261,286.721,251.677,286.721z"/>
<path style="fill:#602F75;" d="M251.68,293.548H178.4c-19.319,0-35.04-15.72-35.04-35.04v-60.534
	c0-37.641,30.626-68.267,68.267-68.267h6.827c37.641,0,68.267,30.626,68.267,68.267v60.534
	C286.72,277.827,271,293.548,251.68,293.548z M211.627,143.361c-30.114,0-54.613,24.499-54.613,54.613v60.534
	c0,11.793,9.593,21.386,21.386,21.386h73.281c11.793,0,21.386-9.593,21.386-21.386v-60.534c0-30.114-24.499-54.613-54.613-54.613
	H211.627z"/>
<g>
	<path style="fill:#EA3457;" d="M211.627,368.641c-97.874,0-177.493-79.619-177.493-177.493S113.753,13.654,211.627,13.654
		S389.12,93.274,389.12,191.148S309.501,368.641,211.627,368.641z M211.627,27.308c-90.341,0-163.84,73.499-163.84,163.84
		s73.499,163.84,163.84,163.84s163.84-73.499,163.84-163.84S301.967,27.308,211.627,27.308z"/>
	<path style="fill:#EA3457;" d="M211.627,47.788c-3.773,0-6.827-3.053-6.827-6.827v-20.48c0-3.773,3.053-6.827,6.827-6.827
		s6.827,3.053,6.827,6.827v20.48C218.453,44.734,215.4,47.788,211.627,47.788z"/>
	<path style="fill:#EA3457;" d="M211.627,368.641c-3.773,0-6.827-3.053-6.827-6.827v-20.48c0-3.773,3.053-6.827,6.827-6.827
		s6.827,3.053,6.827,6.827v20.48C218.453,365.588,215.4,368.641,211.627,368.641z"/>
	<path style="fill:#EA3457;" d="M61.44,191.148H40.96c-3.773,0-6.827-3.053-6.827-6.827s3.053-6.827,6.827-6.827h20.48
		c3.773,0,6.827,3.053,6.827,6.827S65.213,191.148,61.44,191.148z"/>
	<path style="fill:#EA3457;" d="M382.293,191.148h-20.48c-3.773,0-6.827-3.053-6.827-6.827s3.053-6.827,6.827-6.827h20.48
		c3.773,0,6.827,3.053,6.827,6.827S386.067,191.148,382.293,191.148z"/>
</g>
<g>
</g>
<g>
</g>
<g>
</g>
<g>
</g>
<g>
</g>
<g>
</g>
<g>
</g>
<g>
</g>
<g>
</g>
<g>
</g>
<g>
</g>
<g>
</g>
<g>
</g>
<g>
</g>
<g>
</g>
</svg>
